<mxfile host="app.diagrams.net" modified="2021-10-22T15:08:58.127Z" agent="5.0 (Windows)" etag="lEv6s2twieBDgOhbBPDk" version="15.5.8" type="github">
  <diagram id="C5RBs43oDa-KdzZeNtuy" name="Page-1">
    <mxGraphModel dx="1021" dy="469" grid="1" gridSize="10" guides="1" tooltips="1" connect="1" arrows="1" fold="1" page="1" pageScale="1" pageWidth="827" pageHeight="1169" math="0" shadow="0">
      <root>
        <mxCell id="WIyWlLk6GJQsqaUBKTNV-0" />
        <mxCell id="WIyWlLk6GJQsqaUBKTNV-1" parent="WIyWlLk6GJQsqaUBKTNV-0" />
        <mxCell id="WpzsUmF3wmlTMUMNVWiN-4" style="edgeStyle=orthogonalEdgeStyle;rounded=0;orthogonalLoop=1;jettySize=auto;html=1;entryX=0.5;entryY=0;entryDx=0;entryDy=0;" edge="1" parent="WIyWlLk6GJQsqaUBKTNV-1" source="WpzsUmF3wmlTMUMNVWiN-1" target="WpzsUmF3wmlTMUMNVWiN-3">
          <mxGeometry relative="1" as="geometry" />
        </mxCell>
        <mxCell id="WpzsUmF3wmlTMUMNVWiN-1" value="START" style="strokeWidth=2;html=1;shape=mxgraph.flowchart.terminator;whiteSpace=wrap;" vertex="1" parent="WIyWlLk6GJQsqaUBKTNV-1">
          <mxGeometry x="260" y="10" width="100" height="40" as="geometry" />
        </mxCell>
        <mxCell id="WpzsUmF3wmlTMUMNVWiN-2" value="END" style="strokeWidth=2;html=1;shape=mxgraph.flowchart.terminator;whiteSpace=wrap;" vertex="1" parent="WIyWlLk6GJQsqaUBKTNV-1">
          <mxGeometry x="600" y="450" width="100" height="60" as="geometry" />
        </mxCell>
        <mxCell id="WpzsUmF3wmlTMUMNVWiN-6" style="edgeStyle=orthogonalEdgeStyle;rounded=0;orthogonalLoop=1;jettySize=auto;html=1;entryX=0.454;entryY=-0.04;entryDx=0;entryDy=0;entryPerimeter=0;" edge="1" parent="WIyWlLk6GJQsqaUBKTNV-1" source="WpzsUmF3wmlTMUMNVWiN-3" target="WpzsUmF3wmlTMUMNVWiN-5">
          <mxGeometry relative="1" as="geometry" />
        </mxCell>
        <mxCell id="WpzsUmF3wmlTMUMNVWiN-3" value="Read N" style="shape=parallelogram;html=1;strokeWidth=2;perimeter=parallelogramPerimeter;whiteSpace=wrap;rounded=1;arcSize=12;size=0.23;" vertex="1" parent="WIyWlLk6GJQsqaUBKTNV-1">
          <mxGeometry x="250" y="80" width="120" height="30" as="geometry" />
        </mxCell>
        <mxCell id="WpzsUmF3wmlTMUMNVWiN-13" style="edgeStyle=orthogonalEdgeStyle;rounded=0;orthogonalLoop=1;jettySize=auto;html=1;entryX=0.5;entryY=0;entryDx=0;entryDy=0;entryPerimeter=0;" edge="1" parent="WIyWlLk6GJQsqaUBKTNV-1" source="WpzsUmF3wmlTMUMNVWiN-5" target="WpzsUmF3wmlTMUMNVWiN-10">
          <mxGeometry relative="1" as="geometry" />
        </mxCell>
        <mxCell id="WpzsUmF3wmlTMUMNVWiN-5" value="Let&amp;nbsp; i =1, ,j =i" style="rounded=1;whiteSpace=wrap;html=1;absoluteArcSize=1;arcSize=14;strokeWidth=2;" vertex="1" parent="WIyWlLk6GJQsqaUBKTNV-1">
          <mxGeometry x="250" y="140" width="130" height="50" as="geometry" />
        </mxCell>
        <mxCell id="WpzsUmF3wmlTMUMNVWiN-12" style="edgeStyle=orthogonalEdgeStyle;rounded=0;orthogonalLoop=1;jettySize=auto;html=1;entryX=0.5;entryY=0;entryDx=0;entryDy=0;entryPerimeter=0;" edge="1" parent="WIyWlLk6GJQsqaUBKTNV-1" source="WpzsUmF3wmlTMUMNVWiN-10" target="WpzsUmF3wmlTMUMNVWiN-11">
          <mxGeometry relative="1" as="geometry" />
        </mxCell>
        <mxCell id="WpzsUmF3wmlTMUMNVWiN-19" value="false" style="edgeStyle=orthogonalEdgeStyle;rounded=0;orthogonalLoop=1;jettySize=auto;html=1;" edge="1" parent="WIyWlLk6GJQsqaUBKTNV-1" source="WpzsUmF3wmlTMUMNVWiN-10" target="WpzsUmF3wmlTMUMNVWiN-2">
          <mxGeometry relative="1" as="geometry" />
        </mxCell>
        <mxCell id="WpzsUmF3wmlTMUMNVWiN-10" value="IF i&amp;lt;=N" style="strokeWidth=2;html=1;shape=mxgraph.flowchart.decision;whiteSpace=wrap;" vertex="1" parent="WIyWlLk6GJQsqaUBKTNV-1">
          <mxGeometry x="240" y="230" width="150" height="70" as="geometry" />
        </mxCell>
        <mxCell id="WpzsUmF3wmlTMUMNVWiN-16" style="edgeStyle=orthogonalEdgeStyle;rounded=0;orthogonalLoop=1;jettySize=auto;html=1;entryX=0.5;entryY=0;entryDx=0;entryDy=0;" edge="1" parent="WIyWlLk6GJQsqaUBKTNV-1" source="WpzsUmF3wmlTMUMNVWiN-11" target="WpzsUmF3wmlTMUMNVWiN-15">
          <mxGeometry relative="1" as="geometry" />
        </mxCell>
        <mxCell id="WpzsUmF3wmlTMUMNVWiN-26" style="edgeStyle=orthogonalEdgeStyle;rounded=0;orthogonalLoop=1;jettySize=auto;html=1;entryX=1;entryY=0.5;entryDx=0;entryDy=0;exitX=0;exitY=0.5;exitDx=0;exitDy=0;exitPerimeter=0;" edge="1" parent="WIyWlLk6GJQsqaUBKTNV-1" source="WpzsUmF3wmlTMUMNVWiN-11" target="WpzsUmF3wmlTMUMNVWiN-28">
          <mxGeometry relative="1" as="geometry">
            <Array as="points">
              <mxPoint x="240" y="460" />
            </Array>
          </mxGeometry>
        </mxCell>
        <mxCell id="WpzsUmF3wmlTMUMNVWiN-11" value="IF j&amp;lt;=i" style="strokeWidth=2;html=1;shape=mxgraph.flowchart.decision;whiteSpace=wrap;" vertex="1" parent="WIyWlLk6GJQsqaUBKTNV-1">
          <mxGeometry x="240" y="340" width="150" height="80" as="geometry" />
        </mxCell>
        <mxCell id="WpzsUmF3wmlTMUMNVWiN-18" style="edgeStyle=orthogonalEdgeStyle;rounded=0;orthogonalLoop=1;jettySize=auto;html=1;" edge="1" parent="WIyWlLk6GJQsqaUBKTNV-1" source="WpzsUmF3wmlTMUMNVWiN-14">
          <mxGeometry relative="1" as="geometry">
            <mxPoint x="315" y="320" as="targetPoint" />
            <Array as="points">
              <mxPoint x="530" y="320" />
              <mxPoint x="315" y="320" />
            </Array>
          </mxGeometry>
        </mxCell>
        <mxCell id="WpzsUmF3wmlTMUMNVWiN-14" value="j= j+1" style="rounded=1;whiteSpace=wrap;html=1;absoluteArcSize=1;arcSize=14;strokeWidth=2;" vertex="1" parent="WIyWlLk6GJQsqaUBKTNV-1">
          <mxGeometry x="460" y="460" width="100" height="40" as="geometry" />
        </mxCell>
        <mxCell id="WpzsUmF3wmlTMUMNVWiN-17" style="edgeStyle=orthogonalEdgeStyle;rounded=0;orthogonalLoop=1;jettySize=auto;html=1;entryX=0;entryY=0.5;entryDx=0;entryDy=0;" edge="1" parent="WIyWlLk6GJQsqaUBKTNV-1" source="WpzsUmF3wmlTMUMNVWiN-15" target="WpzsUmF3wmlTMUMNVWiN-14">
          <mxGeometry relative="1" as="geometry" />
        </mxCell>
        <mxCell id="WpzsUmF3wmlTMUMNVWiN-15" value="print *" style="shape=parallelogram;html=1;strokeWidth=2;perimeter=parallelogramPerimeter;whiteSpace=wrap;rounded=1;arcSize=12;size=0.23;" vertex="1" parent="WIyWlLk6GJQsqaUBKTNV-1">
          <mxGeometry x="265" y="460" width="100" height="40" as="geometry" />
        </mxCell>
        <mxCell id="WpzsUmF3wmlTMUMNVWiN-20" value="true" style="text;html=1;align=center;verticalAlign=middle;resizable=0;points=[];autosize=1;strokeColor=none;fillColor=none;" vertex="1" parent="WIyWlLk6GJQsqaUBKTNV-1">
          <mxGeometry x="265" y="300" width="40" height="20" as="geometry" />
        </mxCell>
        <mxCell id="WpzsUmF3wmlTMUMNVWiN-21" value="True" style="text;html=1;align=center;verticalAlign=middle;resizable=0;points=[];autosize=1;strokeColor=none;fillColor=none;" vertex="1" parent="WIyWlLk6GJQsqaUBKTNV-1">
          <mxGeometry x="320" y="420" width="40" height="20" as="geometry" />
        </mxCell>
        <mxCell id="WpzsUmF3wmlTMUMNVWiN-24" value="false" style="text;html=1;align=center;verticalAlign=middle;resizable=0;points=[];autosize=1;strokeColor=none;fillColor=none;" vertex="1" parent="WIyWlLk6GJQsqaUBKTNV-1">
          <mxGeometry x="190" y="397.5" width="40" height="20" as="geometry" />
        </mxCell>
        <mxCell id="WpzsUmF3wmlTMUMNVWiN-27" style="edgeStyle=orthogonalEdgeStyle;rounded=0;orthogonalLoop=1;jettySize=auto;html=1;" edge="1" parent="WIyWlLk6GJQsqaUBKTNV-1" source="WpzsUmF3wmlTMUMNVWiN-25">
          <mxGeometry relative="1" as="geometry">
            <mxPoint x="320" y="210" as="targetPoint" />
            <Array as="points">
              <mxPoint x="90" y="210" />
            </Array>
          </mxGeometry>
        </mxCell>
        <mxCell id="WpzsUmF3wmlTMUMNVWiN-25" value="i=I+1" style="rounded=1;whiteSpace=wrap;html=1;absoluteArcSize=1;arcSize=14;strokeWidth=2;" vertex="1" parent="WIyWlLk6GJQsqaUBKTNV-1">
          <mxGeometry x="40" y="362.5" width="100" height="35" as="geometry" />
        </mxCell>
        <mxCell id="WpzsUmF3wmlTMUMNVWiN-32" style="edgeStyle=orthogonalEdgeStyle;rounded=0;orthogonalLoop=1;jettySize=auto;html=1;" edge="1" parent="WIyWlLk6GJQsqaUBKTNV-1" source="WpzsUmF3wmlTMUMNVWiN-28" target="WpzsUmF3wmlTMUMNVWiN-25">
          <mxGeometry relative="1" as="geometry" />
        </mxCell>
        <mxCell id="WpzsUmF3wmlTMUMNVWiN-28" value="print &quot;\n&quot;" style="shape=parallelogram;html=1;strokeWidth=2;perimeter=parallelogramPerimeter;whiteSpace=wrap;rounded=1;arcSize=12;size=0.23;" vertex="1" parent="WIyWlLk6GJQsqaUBKTNV-1">
          <mxGeometry x="40" y="440" width="100" height="40" as="geometry" />
        </mxCell>
      </root>
    </mxGraphModel>
  </diagram>
</mxfile>
